<svg xmlns="http://www.w3.org/2000/svg" xmlns:xlink="http://www.w3.org/1999/xlink" width="500" zoomAndPan="magnify" viewBox="0 0 375 374.999991" height="500" preserveAspectRatio="xMidYMid meet" version="1.0"><defs><filter x="0%" y="0%" width="100%" height="100%" id="2441c89fb1"><feColorMatrix values="0 0 0 0 1 0 0 0 0 1 0 0 0 0 1 0 0 0 1 0" color-interpolation-filters="sRGB"/></filter><g/><clipPath id="0cb244853c"><path d="M 25.8125 0.429688 L 48 0.429688 L 48 22.574219 L 25.8125 22.574219 Z M 25.8125 0.429688 " clip-rule="nonzero"/></clipPath><clipPath id="a7cb8bf039"><path d="M 0 52.0625 L 22.1875 52.0625 L 22.1875 74.246094 L 0 74.246094 Z M 0 52.0625 " clip-rule="nonzero"/></clipPath><clipPath id="89aeba3424"><path d="M 51.625 52.0625 L 73.816406 52.0625 L 73.816406 74.246094 L 51.625 74.246094 Z M 51.625 52.0625 " clip-rule="nonzero"/></clipPath><mask id="c662287e38"><g filter="url(#2441c89fb1)"><rect x="-37.5" width="450" fill="#000000" y="-37.499999" height="449.999989" fill-opacity="0.949"/></g></mask><clipPath id="3cadc752c1"><rect x="0" width="169" y="0" height="81"/></clipPath><mask id="dc2a4fdaf8"><g filter="url(#2441c89fb1)"><rect x="-37.5" width="450" fill="#000000" y="-37.499999" height="449.999989" fill-opacity="0.949"/></g></mask><clipPath id="e8d85beb15"><rect x="0" width="118" y="0" height="81"/></clipPath></defs><rect x="-37.5" width="450" fill="#ffffff" y="-37.499999" height="449.999989" fill-opacity="1"/><rect x="-37.5" width="450" fill="#ffffff" y="-37.499999" height="449.999989" fill-opacity="1"/><rect x="-37.5" width="450" fill="#ffffff" y="-37.499999" height="449.999989" fill-opacity="1"/><path fill="#787a7b" d="M 14.917969 46.59375 L 29.671875 19.527344 L 31.832031 20.703125 L 17.078125 47.773438 Z M 14.917969 46.59375 " fill-opacity="1" fill-rule="nonzero"/><path fill="#787a7b" d="M 44.449219 25.636719 L 46.589844 24.425781 L 62.582031 52.722656 L 60.441406 53.933594 Z M 44.449219 25.636719 " fill-opacity="1" fill-rule="nonzero"/><path fill="#787a7b" d="M 20.914062 61.941406 L 47.980469 61.941406 L 47.980469 64.402344 L 20.914062 64.402344 Z M 20.914062 61.941406 " fill-opacity="1" fill-rule="nonzero"/><g clip-path="url(#0cb244853c)"><path fill="#3e3d40" d="M 47.980469 11.503906 C 47.980469 11.683594 47.976562 11.863281 47.964844 12.046875 C 47.957031 12.226562 47.945312 12.40625 47.925781 12.585938 C 47.910156 12.769531 47.886719 12.949219 47.859375 13.125 C 47.832031 13.304688 47.800781 13.484375 47.765625 13.664062 C 47.730469 13.839844 47.691406 14.015625 47.648438 14.191406 C 47.605469 14.367188 47.554688 14.542969 47.503906 14.714844 C 47.449219 14.890625 47.394531 15.0625 47.332031 15.234375 C 47.269531 15.402344 47.207031 15.570312 47.136719 15.738281 C 47.066406 15.90625 46.992188 16.074219 46.917969 16.238281 C 46.839844 16.398438 46.757812 16.5625 46.671875 16.722656 C 46.585938 16.882812 46.496094 17.039062 46.40625 17.195312 C 46.3125 17.351562 46.214844 17.503906 46.113281 17.652344 C 46.011719 17.804688 45.910156 17.953125 45.800781 18.097656 C 45.691406 18.242188 45.582031 18.386719 45.464844 18.527344 C 45.351562 18.667969 45.234375 18.804688 45.113281 18.9375 C 44.988281 19.074219 44.863281 19.203125 44.738281 19.332031 C 44.609375 19.460938 44.476562 19.585938 44.34375 19.707031 C 44.207031 19.828125 44.070312 19.945312 43.933594 20.0625 C 43.792969 20.175781 43.648438 20.289062 43.503906 20.394531 C 43.359375 20.503906 43.210938 20.609375 43.058594 20.707031 C 42.910156 20.808594 42.753906 20.90625 42.601562 21 C 42.445312 21.09375 42.285156 21.183594 42.125 21.265625 C 41.96875 21.351562 41.804688 21.433594 41.640625 21.511719 C 41.476562 21.589844 41.3125 21.664062 41.144531 21.730469 C 40.976562 21.800781 40.808594 21.867188 40.636719 21.925781 C 40.46875 21.988281 40.296875 22.046875 40.121094 22.097656 C 39.949219 22.152344 39.773438 22.199219 39.597656 22.242188 C 39.421875 22.285156 39.246094 22.328125 39.066406 22.363281 C 38.890625 22.398438 38.710938 22.429688 38.53125 22.453125 C 38.351562 22.480469 38.171875 22.503906 37.992188 22.519531 C 37.8125 22.539062 37.632812 22.550781 37.449219 22.5625 C 37.269531 22.570312 37.089844 22.574219 36.90625 22.574219 C 36.726562 22.574219 36.546875 22.570312 36.363281 22.5625 C 36.183594 22.550781 36.003906 22.539062 35.824219 22.519531 C 35.640625 22.503906 35.460938 22.480469 35.28125 22.453125 C 35.105469 22.429688 34.925781 22.398438 34.746094 22.363281 C 34.570312 22.328125 34.394531 22.285156 34.21875 22.242188 C 34.042969 22.199219 33.867188 22.152344 33.695312 22.097656 C 33.519531 22.046875 33.347656 21.988281 33.175781 21.925781 C 33.007812 21.867188 32.835938 21.800781 32.671875 21.730469 C 32.503906 21.664062 32.335938 21.589844 32.171875 21.511719 C 32.007812 21.433594 31.847656 21.351562 31.6875 21.265625 C 31.527344 21.183594 31.371094 21.09375 31.214844 21 C 31.058594 20.90625 30.90625 20.808594 30.757812 20.707031 C 30.605469 20.609375 30.457031 20.503906 30.3125 20.394531 C 30.167969 20.289062 30.023438 20.175781 29.882812 20.0625 C 29.742188 19.945312 29.605469 19.828125 29.472656 19.707031 C 29.335938 19.585938 29.207031 19.460938 29.078125 19.332031 C 28.949219 19.203125 28.824219 19.074219 28.703125 18.9375 C 28.582031 18.804688 28.464844 18.667969 28.347656 18.527344 C 28.234375 18.386719 28.121094 18.242188 28.015625 18.097656 C 27.90625 17.953125 27.800781 17.804688 27.703125 17.652344 C 27.601562 17.503906 27.503906 17.351562 27.410156 17.195312 C 27.316406 17.039062 27.226562 16.882812 27.144531 16.722656 C 27.058594 16.5625 26.976562 16.398438 26.898438 16.238281 C 26.820312 16.074219 26.746094 15.90625 26.679688 15.738281 C 26.609375 15.570312 26.542969 15.402344 26.484375 15.234375 C 26.421875 15.0625 26.363281 14.890625 26.3125 14.714844 C 26.257812 14.542969 26.210938 14.367188 26.167969 14.191406 C 26.121094 14.015625 26.082031 13.839844 26.046875 13.664062 C 26.011719 13.484375 25.980469 13.304688 25.957031 13.125 C 25.929688 12.949219 25.90625 12.769531 25.886719 12.585938 C 25.871094 12.40625 25.859375 12.226562 25.847656 12.046875 C 25.839844 11.863281 25.835938 11.683594 25.835938 11.503906 C 25.835938 11.320312 25.839844 11.140625 25.847656 10.957031 C 25.859375 10.777344 25.871094 10.597656 25.886719 10.417969 C 25.90625 10.238281 25.929688 10.058594 25.957031 9.878906 C 25.980469 9.699219 26.011719 9.519531 26.046875 9.34375 C 26.082031 9.164062 26.121094 8.988281 26.167969 8.8125 C 26.210938 8.636719 26.257812 8.460938 26.3125 8.289062 C 26.363281 8.113281 26.421875 7.941406 26.484375 7.773438 C 26.542969 7.601562 26.609375 7.433594 26.679688 7.265625 C 26.746094 7.097656 26.820312 6.933594 26.898438 6.769531 C 26.976562 6.605469 27.058594 6.441406 27.144531 6.28125 C 27.226562 6.125 27.316406 5.964844 27.410156 5.808594 C 27.503906 5.65625 27.601562 5.5 27.703125 5.351562 C 27.800781 5.199219 27.90625 5.050781 28.015625 4.90625 C 28.121094 4.761719 28.234375 4.617188 28.347656 4.476562 C 28.464844 4.339844 28.582031 4.199219 28.703125 4.066406 C 28.824219 3.933594 28.949219 3.800781 29.078125 3.671875 C 29.207031 3.546875 29.335938 3.421875 29.472656 3.296875 C 29.605469 3.175781 29.742188 3.058594 29.882812 2.945312 C 30.023438 2.828125 30.167969 2.71875 30.3125 2.609375 C 30.457031 2.5 30.605469 2.398438 30.757812 2.296875 C 30.90625 2.195312 31.058594 2.097656 31.214844 2.003906 C 31.371094 1.914062 31.527344 1.824219 31.6875 1.738281 C 31.847656 1.652344 32.007812 1.570312 32.171875 1.492188 C 32.335938 1.414062 32.503906 1.34375 32.671875 1.273438 C 32.835938 1.203125 33.007812 1.136719 33.175781 1.078125 C 33.347656 1.015625 33.519531 0.960938 33.695312 0.90625 C 33.867188 0.855469 34.042969 0.804688 34.21875 0.761719 C 34.394531 0.71875 34.570312 0.679688 34.746094 0.644531 C 34.925781 0.609375 35.105469 0.578125 35.28125 0.550781 C 35.460938 0.523438 35.640625 0.5 35.824219 0.484375 C 36.003906 0.464844 36.183594 0.453125 36.363281 0.445312 C 36.546875 0.433594 36.726562 0.429688 36.90625 0.429688 C 37.089844 0.429688 37.269531 0.433594 37.449219 0.445312 C 37.632812 0.453125 37.8125 0.464844 37.992188 0.484375 C 38.171875 0.5 38.351562 0.523438 38.53125 0.550781 C 38.710938 0.578125 38.890625 0.609375 39.066406 0.644531 C 39.246094 0.679688 39.421875 0.71875 39.597656 0.761719 C 39.773438 0.804688 39.949219 0.855469 40.121094 0.90625 C 40.296875 0.960938 40.46875 1.015625 40.636719 1.078125 C 40.808594 1.136719 40.976562 1.203125 41.144531 1.273438 C 41.3125 1.34375 41.476562 1.414062 41.640625 1.492188 C 41.804688 1.570312 41.96875 1.652344 42.125 1.738281 C 42.285156 1.824219 42.445312 1.914062 42.601562 2.003906 C 42.753906 2.097656 42.910156 2.195312 43.058594 2.296875 C 43.210938 2.398438 43.359375 2.5 43.503906 2.609375 C 43.648438 2.71875 43.792969 2.828125 43.933594 2.945312 C 44.070312 3.058594 44.207031 3.175781 44.34375 3.296875 C 44.476562 3.421875 44.609375 3.546875 44.738281 3.671875 C 44.863281 3.800781 44.988281 3.933594 45.113281 4.066406 C 45.234375 4.199219 45.351562 4.339844 45.464844 4.476562 C 45.582031 4.617188 45.691406 4.761719 45.800781 4.90625 C 45.910156 5.050781 46.011719 5.199219 46.113281 5.351562 C 46.214844 5.5 46.3125 5.65625 46.40625 5.808594 C 46.496094 5.964844 46.585938 6.125 46.671875 6.28125 C 46.757812 6.441406 46.839844 6.605469 46.917969 6.769531 C 46.992188 6.933594 47.066406 7.097656 47.136719 7.265625 C 47.207031 7.433594 47.269531 7.601562 47.332031 7.773438 C 47.394531 7.941406 47.449219 8.113281 47.503906 8.289062 C 47.554688 8.460938 47.605469 8.636719 47.648438 8.8125 C 47.691406 8.988281 47.730469 9.164062 47.765625 9.34375 C 47.800781 9.519531 47.832031 9.699219 47.859375 9.878906 C 47.886719 10.058594 47.910156 10.238281 47.925781 10.417969 C 47.945312 10.597656 47.957031 10.777344 47.964844 10.957031 C 47.976562 11.140625 47.980469 11.320312 47.980469 11.503906 Z M 47.980469 11.503906 " fill-opacity="1" fill-rule="nonzero"/></g><g clip-path="url(#a7cb8bf039)"><path fill="#3e3d40" d="M 22.144531 63.171875 C 22.144531 63.355469 22.140625 63.535156 22.132812 63.714844 C 22.121094 63.898438 22.109375 64.078125 22.089844 64.257812 C 22.074219 64.4375 22.050781 64.617188 22.023438 64.796875 C 21.996094 64.976562 21.96875 65.15625 21.933594 65.332031 C 21.894531 65.511719 21.855469 65.6875 21.8125 65.863281 C 21.769531 66.039062 21.71875 66.214844 21.667969 66.386719 C 21.613281 66.558594 21.558594 66.730469 21.496094 66.902344 C 21.4375 67.074219 21.371094 67.242188 21.300781 67.410156 C 21.230469 67.578125 21.160156 67.742188 21.082031 67.90625 C 21.003906 68.070312 20.921875 68.234375 20.835938 68.390625 C 20.75 68.550781 20.664062 68.710938 20.570312 68.863281 C 20.476562 69.019531 20.378906 69.171875 20.277344 69.324219 C 20.175781 69.476562 20.074219 69.621094 19.964844 69.769531 C 19.859375 69.914062 19.746094 70.058594 19.632812 70.195312 C 19.515625 70.335938 19.398438 70.472656 19.277344 70.609375 C 19.15625 70.742188 19.03125 70.875 18.902344 71.003906 C 18.773438 71.128906 18.640625 71.253906 18.507812 71.375 C 18.375 71.5 18.238281 71.617188 18.097656 71.730469 C 17.957031 71.847656 17.8125 71.957031 17.667969 72.066406 C 17.523438 72.175781 17.375 72.277344 17.222656 72.378906 C 17.074219 72.480469 16.917969 72.578125 16.765625 72.667969 C 16.609375 72.761719 16.453125 72.851562 16.292969 72.9375 C 16.132812 73.023438 15.96875 73.105469 15.804688 73.183594 C 15.640625 73.257812 15.476562 73.332031 15.308594 73.402344 C 15.140625 73.472656 14.972656 73.535156 14.800781 73.597656 C 14.632812 73.660156 14.460938 73.714844 14.285156 73.769531 C 14.113281 73.820312 13.9375 73.867188 13.761719 73.914062 C 13.585938 73.957031 13.410156 73.996094 13.230469 74.03125 C 13.054688 74.066406 12.875 74.097656 12.695312 74.125 C 12.515625 74.152344 12.335938 74.175781 12.15625 74.191406 C 11.976562 74.210938 11.796875 74.222656 11.617188 74.230469 C 11.433594 74.242188 11.253906 74.246094 11.074219 74.246094 C 10.890625 74.246094 10.710938 74.242188 10.527344 74.230469 C 10.347656 74.222656 10.167969 74.210938 9.988281 74.191406 C 9.804688 74.175781 9.625 74.152344 9.449219 74.125 C 9.269531 74.097656 9.089844 74.066406 8.910156 74.03125 C 8.734375 73.996094 8.558594 73.957031 8.382812 73.914062 C 8.207031 73.867188 8.03125 73.820312 7.859375 73.769531 C 7.683594 73.714844 7.511719 73.660156 7.34375 73.597656 C 7.171875 73.535156 7.003906 73.472656 6.835938 73.402344 C 6.667969 73.332031 6.503906 73.257812 6.339844 73.183594 C 6.175781 73.105469 6.011719 73.023438 5.851562 72.9375 C 5.691406 72.851562 5.535156 72.761719 5.378906 72.667969 C 5.222656 72.578125 5.070312 72.480469 4.921875 72.378906 C 4.769531 72.277344 4.621094 72.175781 4.476562 72.066406 C 4.332031 71.957031 4.1875 71.847656 4.046875 71.730469 C 3.90625 71.617188 3.769531 71.5 3.636719 71.375 C 3.503906 71.253906 3.371094 71.128906 3.242188 71.003906 C 3.113281 70.875 2.988281 70.742188 2.867188 70.609375 C 2.746094 70.472656 2.628906 70.335938 2.511719 70.195312 C 2.398438 70.058594 2.285156 69.914062 2.179688 69.769531 C 2.070312 69.621094 1.964844 69.476562 1.867188 69.324219 C 1.765625 69.171875 1.667969 69.019531 1.574219 68.863281 C 1.480469 68.710938 1.394531 68.550781 1.308594 68.390625 C 1.222656 68.234375 1.140625 68.070312 1.0625 67.90625 C 0.984375 67.742188 0.914062 67.578125 0.84375 67.410156 C 0.773438 67.242188 0.707031 67.074219 0.648438 66.902344 C 0.585938 66.730469 0.527344 66.558594 0.476562 66.386719 C 0.425781 66.214844 0.375 66.039062 0.332031 65.863281 C 0.289062 65.6875 0.25 65.511719 0.210938 65.332031 C 0.175781 65.15625 0.144531 64.976562 0.121094 64.796875 C 0.09375 64.617188 0.0703125 64.4375 0.0546875 64.257812 C 0.0351562 64.078125 0.0234375 63.898438 0.0117188 63.714844 C 0.00390625 63.535156 0 63.355469 0 63.171875 C 0 62.992188 0.00390625 62.808594 0.0117188 62.628906 C 0.0234375 62.449219 0.0351562 62.269531 0.0546875 62.085938 C 0.0703125 61.90625 0.09375 61.726562 0.121094 61.546875 C 0.144531 61.367188 0.175781 61.191406 0.210938 61.011719 C 0.25 60.835938 0.289062 60.65625 0.332031 60.480469 C 0.375 60.308594 0.425781 60.132812 0.476562 59.957031 C 0.527344 59.785156 0.585938 59.613281 0.648438 59.441406 C 0.707031 59.273438 0.773438 59.101562 0.84375 58.9375 C 0.914062 58.769531 0.984375 58.601562 1.0625 58.4375 C 1.140625 58.273438 1.222656 58.113281 1.308594 57.953125 C 1.394531 57.792969 1.480469 57.636719 1.574219 57.480469 C 1.667969 57.324219 1.765625 57.171875 1.867188 57.019531 C 1.964844 56.871094 2.070312 56.722656 2.179688 56.578125 C 2.285156 56.429688 2.398438 56.289062 2.511719 56.148438 C 2.628906 56.007812 2.746094 55.871094 2.867188 55.738281 C 2.988281 55.601562 3.113281 55.472656 3.242188 55.34375 C 3.371094 55.214844 3.503906 55.089844 3.636719 54.96875 C 3.769531 54.847656 3.90625 54.730469 4.046875 54.613281 C 4.1875 54.5 4.332031 54.386719 4.476562 54.28125 C 4.621094 54.171875 4.769531 54.066406 4.921875 53.964844 C 5.070312 53.867188 5.222656 53.769531 5.378906 53.675781 C 5.535156 53.582031 5.691406 53.492188 5.851562 53.40625 C 6.011719 53.324219 6.175781 53.242188 6.339844 53.164062 C 6.503906 53.085938 6.667969 53.011719 6.835938 52.945312 C 7.003906 52.875 7.171875 52.808594 7.34375 52.746094 C 7.511719 52.6875 7.683594 52.628906 7.859375 52.578125 C 8.03125 52.523438 8.207031 52.476562 8.382812 52.433594 C 8.558594 52.386719 8.734375 52.347656 8.910156 52.3125 C 9.089844 52.277344 9.269531 52.246094 9.449219 52.21875 C 9.625 52.195312 9.804688 52.171875 9.988281 52.152344 C 10.167969 52.136719 10.347656 52.121094 10.527344 52.113281 C 10.710938 52.105469 10.890625 52.101562 11.074219 52.101562 C 11.253906 52.101562 11.433594 52.105469 11.617188 52.113281 C 11.796875 52.121094 11.976562 52.136719 12.15625 52.152344 C 12.335938 52.171875 12.515625 52.195312 12.695312 52.21875 C 12.875 52.246094 13.054688 52.277344 13.230469 52.3125 C 13.410156 52.347656 13.585938 52.386719 13.761719 52.433594 C 13.9375 52.476562 14.113281 52.523438 14.285156 52.578125 C 14.460938 52.628906 14.632812 52.6875 14.800781 52.746094 C 14.972656 52.808594 15.140625 52.875 15.308594 52.945312 C 15.476562 53.011719 15.640625 53.085938 15.804688 53.164062 C 15.96875 53.242188 16.132812 53.324219 16.292969 53.40625 C 16.453125 53.492188 16.609375 53.582031 16.765625 53.675781 C 16.917969 53.769531 17.074219 53.867188 17.222656 53.964844 C 17.375 54.066406 17.523438 54.171875 17.667969 54.28125 C 17.8125 54.386719 17.957031 54.5 18.097656 54.613281 C 18.238281 54.730469 18.375 54.847656 18.507812 54.96875 C 18.640625 55.089844 18.773438 55.214844 18.902344 55.34375 C 19.03125 55.472656 19.15625 55.601562 19.277344 55.738281 C 19.398438 55.871094 19.515625 56.007812 19.632812 56.148438 C 19.746094 56.289062 19.859375 56.429688 19.964844 56.578125 C 20.074219 56.722656 20.175781 56.871094 20.277344 57.019531 C 20.378906 57.171875 20.476562 57.324219 20.570312 57.480469 C 20.664062 57.636719 20.75 57.792969 20.835938 57.953125 C 20.921875 58.113281 21.003906 58.273438 21.082031 58.4375 C 21.160156 58.601562 21.230469 58.769531 21.300781 58.9375 C 21.371094 59.101562 21.4375 59.273438 21.496094 59.441406 C 21.558594 59.613281 21.613281 59.785156 21.667969 59.957031 C 21.71875 60.132812 21.769531 60.308594 21.8125 60.480469 C 21.855469 60.65625 21.894531 60.835938 21.933594 61.011719 C 21.96875 61.191406 21.996094 61.367188 22.023438 61.546875 C 22.050781 61.726562 22.074219 61.90625 22.089844 62.085938 C 22.109375 62.269531 22.121094 62.449219 22.132812 62.628906 C 22.140625 62.808594 22.144531 62.992188 22.144531 63.171875 Z M 22.144531 63.171875 " fill-opacity="1" fill-rule="nonzero"/></g><g clip-path="url(#89aeba3424)"><path fill="#3e3d40" d="M 73.816406 63.171875 C 73.816406 63.355469 73.808594 63.535156 73.800781 63.714844 C 73.792969 63.898438 73.78125 64.078125 73.761719 64.257812 C 73.742188 64.4375 73.722656 64.617188 73.695312 64.796875 C 73.667969 64.976562 73.636719 65.15625 73.601562 65.332031 C 73.566406 65.511719 73.527344 65.6875 73.484375 65.863281 C 73.4375 66.039062 73.390625 66.214844 73.339844 66.386719 C 73.285156 66.558594 73.230469 66.730469 73.167969 66.902344 C 73.105469 67.074219 73.042969 67.242188 72.972656 67.410156 C 72.902344 67.578125 72.828125 67.742188 72.75 67.90625 C 72.675781 68.070312 72.59375 68.234375 72.507812 68.390625 C 72.421875 68.550781 72.332031 68.710938 72.238281 68.863281 C 72.144531 69.019531 72.050781 69.171875 71.949219 69.324219 C 71.847656 69.476562 71.742188 69.621094 71.636719 69.769531 C 71.527344 69.914062 71.417969 70.058594 71.300781 70.195312 C 71.1875 70.335938 71.070312 70.472656 70.945312 70.609375 C 70.824219 70.742188 70.699219 70.875 70.570312 71.003906 C 70.445312 71.128906 70.3125 71.253906 70.179688 71.375 C 70.042969 71.5 69.90625 71.617188 69.765625 71.730469 C 69.625 71.847656 69.484375 71.957031 69.339844 72.066406 C 69.191406 72.175781 69.042969 72.277344 68.894531 72.378906 C 68.742188 72.480469 68.589844 72.578125 68.433594 72.667969 C 68.28125 72.761719 68.121094 72.851562 67.960938 72.9375 C 67.800781 73.023438 67.640625 73.105469 67.476562 73.183594 C 67.3125 73.257812 67.148438 73.332031 66.980469 73.402344 C 66.8125 73.472656 66.644531 73.535156 66.472656 73.597656 C 66.300781 73.660156 66.128906 73.714844 65.957031 73.769531 C 65.785156 73.820312 65.609375 73.867188 65.433594 73.914062 C 65.257812 73.957031 65.082031 73.996094 64.902344 74.03125 C 64.726562 74.066406 64.546875 74.097656 64.367188 74.125 C 64.1875 74.152344 64.007812 74.175781 63.828125 74.191406 C 63.648438 74.210938 63.46875 74.222656 63.285156 74.230469 C 63.105469 74.242188 62.925781 74.246094 62.742188 74.246094 C 62.5625 74.246094 62.378906 74.242188 62.199219 74.230469 C 62.019531 74.222656 61.835938 74.210938 61.65625 74.191406 C 61.476562 74.175781 61.296875 74.152344 61.117188 74.125 C 60.9375 74.097656 60.761719 74.066406 60.582031 74.03125 C 60.40625 73.996094 60.226562 73.957031 60.050781 73.914062 C 59.875 73.867188 59.703125 73.820312 59.527344 73.769531 C 59.355469 73.714844 59.183594 73.660156 59.011719 73.597656 C 58.84375 73.535156 58.671875 73.472656 58.503906 73.402344 C 58.339844 73.332031 58.171875 73.257812 58.007812 73.183594 C 57.84375 73.105469 57.683594 73.023438 57.523438 72.9375 C 57.363281 72.851562 57.207031 72.761719 57.050781 72.667969 C 56.894531 72.578125 56.742188 72.480469 56.589844 72.378906 C 56.441406 72.277344 56.292969 72.175781 56.148438 72.066406 C 56 71.957031 55.859375 71.847656 55.71875 71.730469 C 55.578125 71.617188 55.441406 71.5 55.308594 71.375 C 55.171875 71.253906 55.042969 71.128906 54.914062 71.003906 C 54.785156 70.875 54.660156 70.742188 54.539062 70.609375 C 54.417969 70.472656 54.296875 70.335938 54.183594 70.195312 C 54.070312 70.058594 53.957031 69.914062 53.847656 69.769531 C 53.742188 69.621094 53.636719 69.476562 53.535156 69.324219 C 53.4375 69.171875 53.339844 69.019531 53.246094 68.863281 C 53.152344 68.710938 53.0625 68.550781 52.976562 68.390625 C 52.890625 68.234375 52.8125 68.070312 52.734375 67.90625 C 52.65625 67.742188 52.582031 67.578125 52.511719 67.410156 C 52.445312 67.242188 52.378906 67.074219 52.316406 66.902344 C 52.257812 66.730469 52.199219 66.558594 52.148438 66.386719 C 52.09375 66.214844 52.046875 66.039062 52.003906 65.863281 C 51.957031 65.6875 51.917969 65.511719 51.882812 65.332031 C 51.847656 65.15625 51.816406 64.976562 51.789062 64.796875 C 51.761719 64.617188 51.742188 64.4375 51.722656 64.257812 C 51.707031 64.078125 51.691406 63.898438 51.683594 63.714844 C 51.675781 63.535156 51.671875 63.355469 51.671875 63.171875 C 51.671875 62.992188 51.675781 62.808594 51.683594 62.628906 C 51.691406 62.449219 51.707031 62.269531 51.722656 62.085938 C 51.742188 61.90625 51.761719 61.726562 51.789062 61.546875 C 51.816406 61.367188 51.847656 61.191406 51.882812 61.011719 C 51.917969 60.835938 51.957031 60.65625 52.003906 60.480469 C 52.046875 60.308594 52.09375 60.132812 52.148438 59.957031 C 52.199219 59.785156 52.257812 59.613281 52.316406 59.441406 C 52.378906 59.273438 52.445312 59.101562 52.511719 58.9375 C 52.582031 58.769531 52.65625 58.601562 52.734375 58.4375 C 52.8125 58.273438 52.890625 58.113281 52.976562 57.953125 C 53.0625 57.792969 53.152344 57.636719 53.246094 57.480469 C 53.339844 57.324219 53.4375 57.171875 53.535156 57.019531 C 53.636719 56.871094 53.742188 56.722656 53.847656 56.578125 C 53.957031 56.429688 54.070312 56.289062 54.183594 56.148438 C 54.296875 56.007812 54.417969 55.871094 54.539062 55.738281 C 54.660156 55.601562 54.785156 55.472656 54.914062 55.34375 C 55.042969 55.214844 55.171875 55.089844 55.308594 54.96875 C 55.441406 54.847656 55.578125 54.730469 55.71875 54.613281 C 55.859375 54.5 56 54.386719 56.148438 54.28125 C 56.292969 54.171875 56.441406 54.066406 56.589844 53.964844 C 56.742188 53.867188 56.894531 53.769531 57.050781 53.675781 C 57.207031 53.582031 57.363281 53.492188 57.523438 53.40625 C 57.683594 53.324219 57.84375 53.242188 58.007812 53.164062 C 58.171875 53.085938 58.339844 53.011719 58.503906 52.945312 C 58.671875 52.875 58.84375 52.808594 59.011719 52.746094 C 59.183594 52.6875 59.355469 52.628906 59.527344 52.578125 C 59.703125 52.523438 59.875 52.476562 60.050781 52.433594 C 60.226562 52.386719 60.40625 52.347656 60.582031 52.3125 C 60.761719 52.277344 60.9375 52.246094 61.117188 52.21875 C 61.296875 52.195312 61.476562 52.171875 61.65625 52.152344 C 61.835938 52.136719 62.019531 52.121094 62.199219 52.113281 C 62.378906 52.105469 62.5625 52.101562 62.742188 52.101562 C 62.925781 52.101562 63.105469 52.105469 63.285156 52.113281 C 63.46875 52.121094 63.648438 52.136719 63.828125 52.152344 C 64.007812 52.171875 64.1875 52.195312 64.367188 52.21875 C 64.546875 52.246094 64.726562 52.277344 64.902344 52.3125 C 65.082031 52.347656 65.257812 52.386719 65.433594 52.433594 C 65.609375 52.476562 65.785156 52.523438 65.957031 52.578125 C 66.128906 52.628906 66.300781 52.6875 66.472656 52.746094 C 66.644531 52.808594 66.8125 52.875 66.980469 52.945312 C 67.148438 53.011719 67.3125 53.085938 67.476562 53.164062 C 67.640625 53.242188 67.800781 53.324219 67.960938 53.40625 C 68.121094 53.492188 68.28125 53.582031 68.433594 53.675781 C 68.589844 53.769531 68.742188 53.867188 68.894531 53.964844 C 69.042969 54.066406 69.191406 54.171875 69.339844 54.28125 C 69.484375 54.386719 69.625 54.5 69.765625 54.613281 C 69.90625 54.730469 70.042969 54.847656 70.179688 54.96875 C 70.3125 55.089844 70.445312 55.214844 70.570312 55.34375 C 70.699219 55.472656 70.824219 55.601562 70.945312 55.738281 C 71.070312 55.871094 71.1875 56.007812 71.300781 56.148438 C 71.417969 56.289062 71.527344 56.429688 71.636719 56.578125 C 71.742188 56.722656 71.847656 56.871094 71.949219 57.019531 C 72.050781 57.171875 72.144531 57.324219 72.238281 57.480469 C 72.332031 57.636719 72.421875 57.792969 72.507812 57.953125 C 72.59375 58.113281 72.675781 58.273438 72.75 58.4375 C 72.828125 58.601562 72.902344 58.769531 72.972656 58.9375 C 73.042969 59.101562 73.105469 59.273438 73.167969 59.441406 C 73.230469 59.613281 73.285156 59.785156 73.339844 59.957031 C 73.390625 60.132812 73.4375 60.308594 73.484375 60.480469 C 73.527344 60.65625 73.566406 60.835938 73.601562 61.011719 C 73.636719 61.191406 73.667969 61.367188 73.695312 61.546875 C 73.722656 61.726562 73.742188 61.90625 73.761719 62.085938 C 73.78125 62.269531 73.792969 62.449219 73.800781 62.628906 C 73.808594 62.808594 73.816406 62.992188 73.816406 63.171875 Z M 73.816406 63.171875 " fill-opacity="1" fill-rule="nonzero"/></g><path fill="#0c021b" d="M 9.84375 60.710938 C 9.84375 60.792969 9.839844 60.875 9.832031 60.953125 C 9.820312 61.035156 9.808594 61.113281 9.792969 61.191406 C 9.777344 61.269531 9.757812 61.347656 9.734375 61.425781 C 9.710938 61.503906 9.683594 61.578125 9.65625 61.652344 C 9.625 61.726562 9.589844 61.800781 9.550781 61.871094 C 9.511719 61.941406 9.472656 62.011719 9.425781 62.078125 C 9.382812 62.144531 9.335938 62.210938 9.285156 62.273438 C 9.230469 62.335938 9.179688 62.394531 9.121094 62.453125 C 9.0625 62.507812 9.003906 62.5625 8.941406 62.613281 C 8.878906 62.664062 8.816406 62.714844 8.75 62.757812 C 8.679688 62.804688 8.613281 62.84375 8.542969 62.882812 C 8.46875 62.921875 8.398438 62.953125 8.324219 62.984375 C 8.25 63.015625 8.171875 63.042969 8.097656 63.066406 C 8.019531 63.089844 7.941406 63.109375 7.863281 63.125 C 7.78125 63.140625 7.703125 63.152344 7.621094 63.160156 C 7.542969 63.167969 7.460938 63.171875 7.382812 63.171875 C 7.300781 63.171875 7.21875 63.167969 7.140625 63.160156 C 7.058594 63.152344 6.980469 63.140625 6.902344 63.125 C 6.824219 63.109375 6.746094 63.089844 6.667969 63.066406 C 6.589844 63.042969 6.515625 63.015625 6.441406 62.984375 C 6.367188 62.953125 6.292969 62.921875 6.222656 62.882812 C 6.152344 62.84375 6.082031 62.804688 6.015625 62.757812 C 5.949219 62.714844 5.882812 62.664062 5.820312 62.613281 C 5.757812 62.5625 5.699219 62.507812 5.640625 62.453125 C 5.585938 62.394531 5.53125 62.335938 5.480469 62.273438 C 5.429688 62.210938 5.378906 62.144531 5.335938 62.078125 C 5.289062 62.011719 5.25 61.941406 5.210938 61.871094 C 5.171875 61.800781 5.140625 61.726562 5.109375 61.652344 C 5.078125 61.578125 5.050781 61.503906 5.027344 61.425781 C 5.003906 61.347656 4.984375 61.269531 4.96875 61.191406 C 4.953125 61.113281 4.941406 61.035156 4.933594 60.953125 C 4.925781 60.875 4.921875 60.792969 4.921875 60.710938 C 4.921875 60.632812 4.925781 60.550781 4.933594 60.472656 C 4.941406 60.390625 4.953125 60.3125 4.96875 60.230469 C 4.984375 60.152344 5.003906 60.074219 5.027344 60 C 5.050781 59.921875 5.078125 59.84375 5.109375 59.769531 C 5.140625 59.695312 5.171875 59.625 5.210938 59.550781 C 5.25 59.480469 5.289062 59.414062 5.335938 59.34375 C 5.378906 59.277344 5.429688 59.214844 5.480469 59.152344 C 5.53125 59.089844 5.585938 59.03125 5.640625 58.972656 C 5.699219 58.914062 5.757812 58.863281 5.820312 58.808594 C 5.882812 58.757812 5.949219 58.710938 6.015625 58.667969 C 6.082031 58.621094 6.152344 58.582031 6.222656 58.542969 C 6.292969 58.503906 6.367188 58.46875 6.441406 58.4375 C 6.515625 58.410156 6.589844 58.382812 6.667969 58.359375 C 6.746094 58.335938 6.824219 58.316406 6.902344 58.300781 C 6.980469 58.285156 7.058594 58.273438 7.140625 58.261719 C 7.21875 58.253906 7.300781 58.25 7.382812 58.25 C 7.460938 58.25 7.542969 58.253906 7.621094 58.261719 C 7.703125 58.273438 7.78125 58.285156 7.863281 58.300781 C 7.941406 58.316406 8.019531 58.335938 8.097656 58.359375 C 8.171875 58.382812 8.25 58.410156 8.324219 58.4375 C 8.398438 58.46875 8.46875 58.503906 8.542969 58.542969 C 8.613281 58.582031 8.679688 58.621094 8.75 58.667969 C 8.816406 58.710938 8.878906 58.757812 8.941406 58.808594 C 9.003906 58.863281 9.0625 58.914062 9.121094 58.972656 C 9.179688 59.03125 9.230469 59.089844 9.285156 59.152344 C 9.335938 59.214844 9.382812 59.277344 9.425781 59.34375 C 9.472656 59.414062 9.511719 59.480469 9.550781 59.550781 C 9.589844 59.625 9.625 59.695312 9.65625 59.769531 C 9.683594 59.84375 9.710938 59.921875 9.734375 60 C 9.757812 60.074219 9.777344 60.152344 9.792969 60.230469 C 9.808594 60.3125 9.820312 60.390625 9.832031 60.472656 C 9.839844 60.550781 9.84375 60.632812 9.84375 60.710938 Z M 9.84375 60.710938 " fill-opacity="1" fill-rule="nonzero"/><path fill="#0c021b" d="M 36.90625 7.8125 C 36.90625 7.890625 36.902344 7.972656 36.894531 8.054688 C 36.886719 8.132812 36.875 8.210938 36.859375 8.292969 C 36.84375 8.371094 36.824219 8.449219 36.800781 8.527344 C 36.777344 8.601562 36.75 8.679688 36.71875 8.753906 C 36.6875 8.828125 36.65625 8.898438 36.617188 8.972656 C 36.578125 9.042969 36.539062 9.113281 36.492188 9.179688 C 36.449219 9.246094 36.398438 9.308594 36.347656 9.371094 C 36.296875 9.433594 36.242188 9.496094 36.1875 9.550781 C 36.128906 9.609375 36.070312 9.664062 36.007812 9.714844 C 35.945312 9.765625 35.882812 9.8125 35.8125 9.855469 C 35.746094 9.902344 35.679688 9.945312 35.605469 9.980469 C 35.535156 10.019531 35.464844 10.054688 35.386719 10.085938 C 35.3125 10.117188 35.238281 10.144531 35.160156 10.167969 C 35.085938 10.191406 35.007812 10.210938 34.925781 10.226562 C 34.847656 10.242188 34.769531 10.253906 34.6875 10.261719 C 34.609375 10.269531 34.527344 10.273438 34.445312 10.273438 C 34.367188 10.273438 34.285156 10.269531 34.207031 10.261719 C 34.125 10.253906 34.046875 10.242188 33.96875 10.226562 C 33.886719 10.210938 33.808594 10.191406 33.734375 10.167969 C 33.65625 10.144531 33.578125 10.117188 33.503906 10.085938 C 33.429688 10.054688 33.359375 10.019531 33.285156 9.980469 C 33.214844 9.945312 33.148438 9.902344 33.078125 9.855469 C 33.011719 9.8125 32.949219 9.765625 32.886719 9.714844 C 32.824219 9.664062 32.765625 9.609375 32.707031 9.550781 C 32.648438 9.496094 32.597656 9.433594 32.546875 9.371094 C 32.492188 9.308594 32.445312 9.246094 32.402344 9.179688 C 32.355469 9.113281 32.316406 9.042969 32.277344 8.972656 C 32.238281 8.898438 32.203125 8.828125 32.171875 8.753906 C 32.144531 8.679688 32.117188 8.601562 32.09375 8.527344 C 32.070312 8.449219 32.050781 8.371094 32.035156 8.292969 C 32.019531 8.210938 32.007812 8.132812 32 8.054688 C 31.992188 7.972656 31.988281 7.890625 31.988281 7.8125 C 31.988281 7.730469 31.992188 7.652344 32 7.570312 C 32.007812 7.488281 32.019531 7.410156 32.035156 7.332031 C 32.050781 7.253906 32.070312 7.175781 32.09375 7.097656 C 32.117188 7.019531 32.144531 6.945312 32.171875 6.871094 C 32.203125 6.796875 32.238281 6.722656 32.277344 6.652344 C 32.316406 6.582031 32.355469 6.511719 32.402344 6.445312 C 32.445312 6.378906 32.492188 6.3125 32.546875 6.25 C 32.597656 6.1875 32.648438 6.128906 32.707031 6.070312 C 32.765625 6.015625 32.824219 5.960938 32.886719 5.910156 C 32.949219 5.859375 33.011719 5.8125 33.078125 5.765625 C 33.148438 5.722656 33.214844 5.679688 33.285156 5.640625 C 33.359375 5.605469 33.429688 5.570312 33.503906 5.539062 C 33.578125 5.507812 33.65625 5.480469 33.734375 5.457031 C 33.808594 5.433594 33.886719 5.414062 33.96875 5.398438 C 34.046875 5.382812 34.125 5.371094 34.207031 5.363281 C 34.285156 5.355469 34.367188 5.351562 34.445312 5.351562 C 34.527344 5.351562 34.609375 5.355469 34.6875 5.363281 C 34.769531 5.371094 34.847656 5.382812 34.925781 5.398438 C 35.007812 5.414062 35.085938 5.433594 35.160156 5.457031 C 35.238281 5.480469 35.3125 5.507812 35.386719 5.539062 C 35.464844 5.570312 35.535156 5.605469 35.605469 5.640625 C 35.679688 5.679688 35.746094 5.722656 35.8125 5.765625 C 35.882812 5.8125 35.945312 5.859375 36.007812 5.910156 C 36.070312 5.960938 36.128906 6.015625 36.1875 6.070312 C 36.242188 6.128906 36.296875 6.1875 36.347656 6.25 C 36.398438 6.3125 36.449219 6.378906 36.492188 6.445312 C 36.539062 6.511719 36.578125 6.582031 36.617188 6.652344 C 36.65625 6.722656 36.6875 6.796875 36.71875 6.871094 C 36.75 6.945312 36.777344 7.019531 36.800781 7.097656 C 36.824219 7.175781 36.84375 7.253906 36.859375 7.332031 C 36.875 7.410156 36.886719 7.488281 36.894531 7.570312 C 36.902344 7.652344 36.90625 7.730469 36.90625 7.8125 Z M 36.90625 7.8125 " fill-opacity="1" fill-rule="nonzero"/><path fill="#0c021b" d="M 68.894531 60.710938 C 68.894531 60.792969 68.890625 60.875 68.882812 60.953125 C 68.875 61.035156 68.863281 61.113281 68.847656 61.191406 C 68.832031 61.269531 68.8125 61.347656 68.789062 61.425781 C 68.765625 61.503906 68.738281 61.578125 68.707031 61.652344 C 68.675781 61.726562 68.640625 61.800781 68.601562 61.871094 C 68.566406 61.941406 68.523438 62.011719 68.480469 62.078125 C 68.433594 62.144531 68.386719 62.210938 68.335938 62.273438 C 68.285156 62.335938 68.230469 62.394531 68.171875 62.453125 C 68.117188 62.507812 68.058594 62.5625 67.996094 62.613281 C 67.933594 62.664062 67.867188 62.714844 67.800781 62.757812 C 67.734375 62.804688 67.664062 62.84375 67.59375 62.882812 C 67.523438 62.921875 67.449219 62.953125 67.375 62.984375 C 67.300781 63.015625 67.226562 63.042969 67.148438 63.066406 C 67.070312 63.089844 66.992188 63.109375 66.914062 63.125 C 66.835938 63.140625 66.753906 63.152344 66.675781 63.160156 C 66.59375 63.167969 66.515625 63.171875 66.433594 63.171875 C 66.351562 63.171875 66.273438 63.167969 66.191406 63.160156 C 66.113281 63.152344 66.03125 63.140625 65.953125 63.125 C 65.875 63.109375 65.796875 63.089844 65.71875 63.066406 C 65.640625 63.042969 65.566406 63.015625 65.492188 62.984375 C 65.417969 62.953125 65.34375 62.921875 65.273438 62.882812 C 65.203125 62.84375 65.132812 62.804688 65.066406 62.757812 C 65 62.714844 64.933594 62.664062 64.871094 62.613281 C 64.808594 62.5625 64.75 62.507812 64.695312 62.453125 C 64.636719 62.394531 64.582031 62.335938 64.53125 62.273438 C 64.480469 62.210938 64.433594 62.144531 64.386719 62.078125 C 64.34375 62.011719 64.300781 61.941406 64.261719 61.871094 C 64.226562 61.800781 64.191406 61.726562 64.160156 61.652344 C 64.128906 61.578125 64.101562 61.503906 64.078125 61.425781 C 64.054688 61.347656 64.035156 61.269531 64.019531 61.191406 C 64.003906 61.113281 63.992188 61.035156 63.984375 60.953125 C 63.976562 60.875 63.972656 60.792969 63.972656 60.710938 C 63.972656 60.632812 63.976562 60.550781 63.984375 60.472656 C 63.992188 60.390625 64.003906 60.3125 64.019531 60.230469 C 64.035156 60.152344 64.054688 60.074219 64.078125 60 C 64.101562 59.921875 64.128906 59.84375 64.160156 59.769531 C 64.191406 59.695312 64.226562 59.625 64.261719 59.550781 C 64.300781 59.480469 64.34375 59.414062 64.386719 59.34375 C 64.433594 59.277344 64.480469 59.214844 64.53125 59.152344 C 64.582031 59.089844 64.636719 59.03125 64.695312 58.972656 C 64.75 58.914062 64.808594 58.863281 64.871094 58.808594 C 64.933594 58.757812 65 58.710938 65.066406 58.667969 C 65.132812 58.621094 65.203125 58.582031 65.273438 58.542969 C 65.34375 58.503906 65.417969 58.46875 65.492188 58.4375 C 65.566406 58.410156 65.640625 58.382812 65.71875 58.359375 C 65.796875 58.335938 65.875 58.316406 65.953125 58.300781 C 66.03125 58.285156 66.113281 58.273438 66.191406 58.261719 C 66.273438 58.253906 66.351562 58.25 66.433594 58.25 C 66.515625 58.25 66.59375 58.253906 66.675781 58.261719 C 66.753906 58.273438 66.835938 58.285156 66.914062 58.300781 C 66.992188 58.316406 67.070312 58.335938 67.148438 58.359375 C 67.226562 58.382812 67.300781 58.410156 67.375 58.4375 C 67.449219 58.46875 67.523438 58.503906 67.59375 58.542969 C 67.664062 58.582031 67.734375 58.621094 67.800781 58.667969 C 67.867188 58.710938 67.933594 58.757812 67.996094 58.808594 C 68.058594 58.863281 68.117188 58.914062 68.171875 58.972656 C 68.230469 59.03125 68.285156 59.089844 68.335938 59.152344 C 68.386719 59.214844 68.433594 59.277344 68.480469 59.34375 C 68.523438 59.414062 68.566406 59.480469 68.601562 59.550781 C 68.640625 59.625 68.675781 59.695312 68.707031 59.769531 C 68.738281 59.84375 68.765625 59.921875 68.789062 60 C 68.8125 60.074219 68.832031 60.152344 68.847656 60.230469 C 68.863281 60.3125 68.875 60.390625 68.882812 60.472656 C 68.890625 60.550781 68.894531 60.632812 68.894531 60.710938 Z M 68.894531 60.710938 " fill-opacity="1" fill-rule="nonzero"/><path fill="#3e3d40" d="M 39.367188 52.101562 C 39.367188 52.179688 39.363281 52.261719 39.355469 52.339844 C 39.347656 52.421875 39.335938 52.5 39.320312 52.582031 C 39.304688 52.660156 39.285156 52.738281 39.261719 52.816406 C 39.238281 52.890625 39.210938 52.96875 39.179688 53.042969 C 39.148438 53.117188 39.117188 53.1875 39.078125 53.261719 C 39.039062 53.332031 38.996094 53.402344 38.953125 53.46875 C 38.910156 53.535156 38.859375 53.597656 38.808594 53.660156 C 38.757812 53.722656 38.703125 53.785156 38.648438 53.839844 C 38.589844 53.898438 38.53125 53.953125 38.46875 54.003906 C 38.40625 54.054688 38.339844 54.101562 38.273438 54.144531 C 38.207031 54.191406 38.136719 54.234375 38.066406 54.269531 C 37.996094 54.308594 37.921875 54.34375 37.847656 54.375 C 37.773438 54.40625 37.699219 54.433594 37.621094 54.457031 C 37.542969 54.476562 37.464844 54.5 37.386719 54.515625 C 37.308594 54.53125 37.230469 54.542969 37.148438 54.550781 C 37.070312 54.558594 36.988281 54.5625 36.90625 54.5625 C 36.828125 54.5625 36.746094 54.558594 36.667969 54.550781 C 36.585938 54.542969 36.507812 54.53125 36.425781 54.515625 C 36.347656 54.5 36.269531 54.476562 36.191406 54.453125 C 36.117188 54.433594 36.039062 54.40625 35.964844 54.375 C 35.890625 54.34375 35.820312 54.308594 35.746094 54.269531 C 35.675781 54.234375 35.609375 54.191406 35.539062 54.144531 C 35.472656 54.101562 35.410156 54.054688 35.347656 54.003906 C 35.285156 53.953125 35.226562 53.898438 35.167969 53.839844 C 35.109375 53.785156 35.054688 53.722656 35.003906 53.660156 C 34.953125 53.597656 34.90625 53.535156 34.863281 53.46875 C 34.816406 53.402344 34.777344 53.332031 34.738281 53.261719 C 34.699219 53.1875 34.664062 53.117188 34.632812 53.042969 C 34.601562 52.96875 34.578125 52.890625 34.554688 52.816406 C 34.53125 52.738281 34.511719 52.660156 34.496094 52.582031 C 34.480469 52.5 34.464844 52.421875 34.457031 52.339844 C 34.449219 52.261719 34.445312 52.179688 34.445312 52.101562 C 34.445312 52.019531 34.449219 51.941406 34.457031 51.859375 C 34.464844 51.777344 34.480469 51.699219 34.496094 51.621094 C 34.511719 51.542969 34.53125 51.464844 34.554688 51.386719 C 34.578125 51.308594 34.601562 51.234375 34.632812 51.160156 C 34.664062 51.085938 34.699219 51.011719 34.738281 50.941406 C 34.777344 50.871094 34.816406 50.800781 34.863281 50.734375 C 34.90625 50.667969 34.953125 50.601562 35.003906 50.539062 C 35.054688 50.476562 35.109375 50.417969 35.167969 50.359375 C 35.226562 50.304688 35.285156 50.25 35.347656 50.199219 C 35.410156 50.148438 35.472656 50.097656 35.539062 50.054688 C 35.609375 50.011719 35.675781 49.96875 35.746094 49.929688 C 35.820312 49.890625 35.890625 49.859375 35.964844 49.828125 C 36.039062 49.796875 36.117188 49.769531 36.191406 49.746094 C 36.269531 49.722656 36.347656 49.703125 36.425781 49.6875 C 36.507812 49.671875 36.585938 49.660156 36.667969 49.652344 C 36.746094 49.644531 36.828125 49.640625 36.90625 49.640625 C 36.988281 49.640625 37.070312 49.644531 37.148438 49.652344 C 37.230469 49.660156 37.308594 49.671875 37.386719 49.6875 C 37.464844 49.703125 37.542969 49.722656 37.621094 49.746094 C 37.699219 49.769531 37.773438 49.796875 37.847656 49.828125 C 37.921875 49.859375 37.996094 49.890625 38.066406 49.929688 C 38.136719 49.96875 38.207031 50.011719 38.273438 50.054688 C 38.339844 50.097656 38.40625 50.148438 38.46875 50.199219 C 38.53125 50.25 38.589844 50.304688 38.648438 50.359375 C 38.703125 50.417969 38.757812 50.476562 38.808594 50.539062 C 38.859375 50.601562 38.910156 50.667969 38.953125 50.734375 C 38.996094 50.800781 39.039062 50.871094 39.078125 50.941406 C 39.117188 51.011719 39.148438 51.085938 39.179688 51.160156 C 39.210938 51.234375 39.238281 51.308594 39.261719 51.386719 C 39.285156 51.464844 39.304688 51.542969 39.320312 51.621094 C 39.335938 51.699219 39.347656 51.777344 39.355469 51.859375 C 39.363281 51.941406 39.367188 52.019531 39.367188 52.101562 Z M 39.367188 52.101562 " fill-opacity="1" fill-rule="nonzero"/><path fill="#3e3d40" d="M 39.367188 43.488281 C 39.367188 43.570312 39.363281 43.648438 39.355469 43.730469 C 39.347656 43.808594 39.335938 43.890625 39.320312 43.96875 C 39.304688 44.046875 39.285156 44.125 39.261719 44.203125 C 39.238281 44.28125 39.210938 44.355469 39.179688 44.429688 C 39.148438 44.503906 39.117188 44.578125 39.078125 44.648438 C 39.039062 44.71875 38.996094 44.789062 38.953125 44.855469 C 38.910156 44.921875 38.859375 44.988281 38.808594 45.050781 C 38.757812 45.113281 38.703125 45.171875 38.648438 45.230469 C 38.589844 45.285156 38.53125 45.339844 38.46875 45.390625 C 38.40625 45.441406 38.339844 45.488281 38.273438 45.535156 C 38.207031 45.578125 38.136719 45.621094 38.066406 45.660156 C 37.996094 45.695312 37.921875 45.730469 37.847656 45.761719 C 37.773438 45.792969 37.699219 45.820312 37.621094 45.84375 C 37.542969 45.867188 37.464844 45.886719 37.386719 45.902344 C 37.308594 45.917969 37.230469 45.929688 37.148438 45.9375 C 37.070312 45.945312 36.988281 45.949219 36.90625 45.949219 C 36.828125 45.949219 36.746094 45.945312 36.667969 45.9375 C 36.585938 45.929688 36.507812 45.917969 36.425781 45.902344 C 36.347656 45.886719 36.269531 45.867188 36.191406 45.84375 C 36.117188 45.820312 36.039062 45.792969 35.964844 45.761719 C 35.890625 45.730469 35.820312 45.695312 35.746094 45.660156 C 35.675781 45.621094 35.609375 45.578125 35.539062 45.535156 C 35.472656 45.488281 35.410156 45.441406 35.347656 45.390625 C 35.285156 45.339844 35.226562 45.285156 35.167969 45.230469 C 35.109375 45.171875 35.054688 45.113281 35.003906 45.050781 C 34.953125 44.988281 34.90625 44.921875 34.863281 44.855469 C 34.816406 44.789062 34.777344 44.71875 34.738281 44.648438 C 34.699219 44.578125 34.664062 44.503906 34.632812 44.429688 C 34.601562 44.355469 34.578125 44.28125 34.554688 44.203125 C 34.53125 44.125 34.511719 44.046875 34.496094 43.96875 C 34.480469 43.890625 34.464844 43.808594 34.457031 43.730469 C 34.449219 43.648438 34.445312 43.570312 34.445312 43.488281 C 34.445312 43.410156 34.449219 43.328125 34.457031 43.246094 C 34.464844 43.167969 34.480469 43.085938 34.496094 43.007812 C 34.511719 42.929688 34.53125 42.851562 34.554688 42.773438 C 34.578125 42.699219 34.601562 42.621094 34.632812 42.546875 C 34.664062 42.472656 34.699219 42.398438 34.738281 42.328125 C 34.777344 42.257812 34.816406 42.1875 34.863281 42.121094 C 34.90625 42.054688 34.953125 41.988281 35.003906 41.929688 C 35.054688 41.867188 35.109375 41.804688 35.167969 41.75 C 35.226562 41.691406 35.285156 41.636719 35.347656 41.585938 C 35.410156 41.535156 35.472656 41.488281 35.539062 41.441406 C 35.609375 41.398438 35.675781 41.355469 35.746094 41.320312 C 35.820312 41.28125 35.890625 41.246094 35.964844 41.214844 C 36.039062 41.183594 36.117188 41.15625 36.191406 41.132812 C 36.269531 41.109375 36.347656 41.089844 36.425781 41.074219 C 36.507812 41.058594 36.585938 41.046875 36.667969 41.039062 C 36.746094 41.03125 36.828125 41.027344 36.90625 41.027344 C 36.988281 41.027344 37.070312 41.03125 37.148438 41.039062 C 37.230469 41.046875 37.308594 41.058594 37.386719 41.074219 C 37.464844 41.089844 37.542969 41.109375 37.621094 41.132812 C 37.699219 41.15625 37.773438 41.183594 37.847656 41.214844 C 37.921875 41.246094 37.996094 41.28125 38.066406 41.320312 C 38.136719 41.355469 38.207031 41.398438 38.273438 41.441406 C 38.339844 41.488281 38.40625 41.535156 38.46875 41.585938 C 38.53125 41.636719 38.589844 41.691406 38.648438 41.75 C 38.703125 41.804688 38.757812 41.867188 38.808594 41.929688 C 38.859375 41.988281 38.910156 42.054688 38.953125 42.121094 C 38.996094 42.1875 39.039062 42.257812 39.078125 42.328125 C 39.117188 42.398438 39.148438 42.472656 39.179688 42.546875 C 39.210938 42.621094 39.238281 42.699219 39.261719 42.773438 C 39.285156 42.851562 39.304688 42.929688 39.320312 43.007812 C 39.335938 43.085938 39.347656 43.167969 39.355469 43.246094 C 39.363281 43.328125 39.367188 43.410156 39.367188 43.488281 Z M 39.367188 43.488281 " fill-opacity="1" fill-rule="nonzero"/><path fill="#3e3d40" d="M 39.367188 34.878906 C 39.367188 34.957031 39.363281 35.039062 39.355469 35.117188 C 39.347656 35.199219 39.335938 35.277344 39.320312 35.355469 C 39.304688 35.4375 39.285156 35.515625 39.261719 35.589844 C 39.238281 35.667969 39.210938 35.746094 39.179688 35.820312 C 39.148438 35.894531 39.117188 35.964844 39.078125 36.035156 C 39.039062 36.109375 38.996094 36.175781 38.953125 36.242188 C 38.910156 36.3125 38.859375 36.375 38.808594 36.4375 C 38.757812 36.5 38.703125 36.558594 38.648438 36.617188 C 38.589844 36.675781 38.53125 36.726562 38.46875 36.777344 C 38.40625 36.832031 38.339844 36.878906 38.273438 36.921875 C 38.207031 36.96875 38.136719 37.007812 38.066406 37.046875 C 37.996094 37.085938 37.921875 37.121094 37.847656 37.148438 C 37.773438 37.179688 37.699219 37.207031 37.621094 37.230469 C 37.542969 37.253906 37.464844 37.273438 37.386719 37.289062 C 37.308594 37.304688 37.230469 37.316406 37.148438 37.324219 C 37.070312 37.332031 36.988281 37.335938 36.90625 37.335938 C 36.828125 37.335938 36.746094 37.332031 36.667969 37.324219 C 36.585938 37.316406 36.507812 37.304688 36.425781 37.289062 C 36.347656 37.273438 36.269531 37.253906 36.191406 37.230469 C 36.117188 37.207031 36.039062 37.179688 35.964844 37.148438 C 35.890625 37.121094 35.820312 37.085938 35.746094 37.046875 C 35.675781 37.007812 35.609375 36.96875 35.539062 36.921875 C 35.472656 36.878906 35.410156 36.832031 35.347656 36.777344 C 35.285156 36.726562 35.226562 36.675781 35.167969 36.617188 C 35.109375 36.558594 35.054688 36.5 35.003906 36.4375 C 34.953125 36.375 34.90625 36.3125 34.863281 36.242188 C 34.816406 36.175781 34.777344 36.109375 34.738281 36.035156 C 34.699219 35.964844 34.664062 35.894531 34.632812 35.820312 C 34.601562 35.746094 34.578125 35.667969 34.554688 35.589844 C 34.53125 35.515625 34.511719 35.4375 34.496094 35.355469 C 34.480469 35.277344 34.464844 35.199219 34.457031 35.117188 C 34.449219 35.039062 34.445312 34.957031 34.445312 34.878906 C 34.445312 34.796875 34.449219 34.714844 34.457031 34.636719 C 34.464844 34.554688 34.480469 34.476562 34.496094 34.398438 C 34.511719 34.316406 34.53125 34.238281 34.554688 34.164062 C 34.578125 34.085938 34.601562 34.011719 34.632812 33.933594 C 34.664062 33.859375 34.699219 33.789062 34.738281 33.71875 C 34.777344 33.644531 34.816406 33.578125 34.863281 33.511719 C 34.90625 33.441406 34.953125 33.378906 35.003906 33.316406 C 35.054688 33.253906 35.109375 33.195312 35.167969 33.136719 C 35.226562 33.082031 35.285156 33.027344 35.347656 32.976562 C 35.410156 32.925781 35.472656 32.875 35.539062 32.832031 C 35.609375 32.785156 35.675781 32.746094 35.746094 32.707031 C 35.820312 32.667969 35.890625 32.632812 35.964844 32.605469 C 36.039062 32.574219 36.117188 32.546875 36.191406 32.523438 C 36.269531 32.5 36.347656 32.480469 36.425781 32.464844 C 36.507812 32.449219 36.585938 32.4375 36.667969 32.429688 C 36.746094 32.421875 36.828125 32.417969 36.90625 32.417969 C 36.988281 32.417969 37.070312 32.421875 37.148438 32.429688 C 37.230469 32.4375 37.308594 32.449219 37.386719 32.464844 C 37.464844 32.480469 37.542969 32.5 37.621094 32.523438 C 37.699219 32.546875 37.773438 32.574219 37.847656 32.605469 C 37.921875 32.632812 37.996094 32.667969 38.066406 32.707031 C 38.136719 32.746094 38.207031 32.785156 38.273438 32.832031 C 38.339844 32.875 38.40625 32.925781 38.46875 32.976562 C 38.53125 33.027344 38.589844 33.082031 38.648438 33.136719 C 38.703125 33.195312 38.757812 33.253906 38.808594 33.316406 C 38.859375 33.378906 38.910156 33.441406 38.953125 33.511719 C 38.996094 33.578125 39.039062 33.644531 39.078125 33.71875 C 39.117188 33.789062 39.148438 33.859375 39.179688 33.933594 C 39.210938 34.011719 39.238281 34.085938 39.261719 34.164062 C 39.285156 34.238281 39.304688 34.316406 39.320312 34.398438 C 39.335938 34.476562 39.347656 34.554688 39.355469 34.636719 C 39.363281 34.714844 39.367188 34.796875 39.367188 34.878906 Z M 39.367188 34.878906 " fill-opacity="1" fill-rule="nonzero"/><path fill="#3e3d40" d="M 31.988281 48.410156 C 31.988281 48.492188 31.984375 48.570312 31.972656 48.652344 C 31.96875 48.730469 31.953125 48.8125 31.9375 48.890625 C 31.921875 48.96875 31.902344 49.046875 31.878906 49.125 C 31.855469 49.203125 31.832031 49.277344 31.800781 49.351562 C 31.769531 49.425781 31.734375 49.5 31.695312 49.570312 C 31.65625 49.640625 31.617188 49.710938 31.570312 49.777344 C 31.527344 49.84375 31.480469 49.910156 31.429688 49.972656 C 31.375 50.03125 31.324219 50.09375 31.265625 50.148438 C 31.207031 50.207031 31.148438 50.261719 31.085938 50.3125 C 31.023438 50.363281 30.960938 50.410156 30.894531 50.457031 C 30.824219 50.5 30.757812 50.542969 30.6875 50.578125 C 30.613281 50.617188 30.542969 50.652344 30.46875 50.683594 C 30.394531 50.714844 30.316406 50.742188 30.238281 50.765625 C 30.164062 50.789062 30.085938 50.808594 30.007812 50.824219 C 29.925781 50.839844 29.847656 50.851562 29.765625 50.859375 C 29.6875 50.867188 29.605469 50.871094 29.527344 50.871094 C 29.445312 50.871094 29.363281 50.867188 29.285156 50.859375 C 29.203125 50.851562 29.125 50.839844 29.046875 50.824219 C 28.96875 50.808594 28.890625 50.789062 28.8125 50.765625 C 28.734375 50.742188 28.660156 50.714844 28.585938 50.683594 C 28.511719 50.652344 28.4375 50.617188 28.367188 50.578125 C 28.296875 50.542969 28.226562 50.5 28.160156 50.457031 C 28.09375 50.410156 28.027344 50.363281 27.964844 50.3125 C 27.902344 50.261719 27.84375 50.207031 27.785156 50.148438 C 27.730469 50.09375 27.675781 50.03125 27.625 49.972656 C 27.574219 49.910156 27.523438 49.84375 27.480469 49.777344 C 27.433594 49.710938 27.394531 49.640625 27.355469 49.570312 C 27.316406 49.5 27.285156 49.425781 27.253906 49.351562 C 27.222656 49.277344 27.195312 49.203125 27.171875 49.125 C 27.148438 49.046875 27.128906 48.96875 27.113281 48.890625 C 27.097656 48.8125 27.085938 48.730469 27.078125 48.652344 C 27.070312 48.570312 27.066406 48.492188 27.066406 48.410156 C 27.066406 48.328125 27.070312 48.25 27.078125 48.167969 C 27.085938 48.089844 27.097656 48.007812 27.113281 47.929688 C 27.128906 47.851562 27.148438 47.773438 27.171875 47.695312 C 27.195312 47.617188 27.222656 47.542969 27.253906 47.46875 C 27.285156 47.394531 27.316406 47.320312 27.355469 47.25 C 27.394531 47.179688 27.433594 47.109375 27.480469 47.042969 C 27.523438 46.976562 27.574219 46.910156 27.625 46.847656 C 27.675781 46.785156 27.730469 46.726562 27.785156 46.671875 C 27.84375 46.613281 27.902344 46.558594 27.964844 46.507812 C 28.027344 46.457031 28.09375 46.410156 28.160156 46.363281 C 28.226562 46.320312 28.296875 46.277344 28.367188 46.238281 C 28.4375 46.203125 28.511719 46.167969 28.585938 46.136719 C 28.660156 46.105469 28.734375 46.078125 28.8125 46.054688 C 28.890625 46.03125 28.96875 46.011719 29.046875 45.996094 C 29.125 45.980469 29.203125 45.96875 29.285156 45.960938 C 29.363281 45.953125 29.445312 45.949219 29.527344 45.949219 C 29.605469 45.949219 29.6875 45.953125 29.765625 45.960938 C 29.847656 45.96875 29.925781 45.980469 30.007812 45.996094 C 30.085938 46.011719 30.164062 46.03125 30.238281 46.054688 C 30.316406 46.078125 30.394531 46.105469 30.46875 46.136719 C 30.542969 46.167969 30.613281 46.203125 30.6875 46.238281 C 30.757812 46.277344 30.824219 46.320312 30.894531 46.363281 C 30.960938 46.410156 31.023438 46.457031 31.085938 46.507812 C 31.148438 46.558594 31.207031 46.613281 31.265625 46.671875 C 31.324219 46.726562 31.375 46.785156 31.429688 46.847656 C 31.480469 46.910156 31.527344 46.976562 31.570312 47.042969 C 31.617188 47.109375 31.65625 47.179688 31.695312 47.25 C 31.734375 47.320312 31.769531 47.394531 31.800781 47.46875 C 31.832031 47.542969 31.855469 47.617188 31.878906 47.695312 C 31.902344 47.773438 31.921875 47.851562 31.9375 47.929688 C 31.953125 48.007812 31.96875 48.089844 31.972656 48.167969 C 31.984375 48.25 31.988281 48.328125 31.988281 48.410156 Z M 31.988281 48.410156 " fill-opacity="1" fill-rule="nonzero"/><path fill="#3e3d40" d="M 46.75 48.410156 C 46.75 48.492188 46.746094 48.570312 46.738281 48.652344 C 46.730469 48.730469 46.71875 48.8125 46.703125 48.890625 C 46.6875 48.96875 46.667969 49.046875 46.644531 49.125 C 46.621094 49.203125 46.59375 49.277344 46.5625 49.351562 C 46.53125 49.425781 46.496094 49.5 46.457031 49.570312 C 46.421875 49.640625 46.378906 49.710938 46.335938 49.777344 C 46.289062 49.84375 46.242188 49.910156 46.191406 49.972656 C 46.140625 50.03125 46.085938 50.09375 46.027344 50.148438 C 45.972656 50.207031 45.910156 50.261719 45.851562 50.3125 C 45.789062 50.363281 45.722656 50.410156 45.65625 50.457031 C 45.589844 50.5 45.519531 50.542969 45.449219 50.578125 C 45.378906 50.617188 45.304688 50.652344 45.230469 50.683594 C 45.15625 50.714844 45.082031 50.742188 45.003906 50.765625 C 44.925781 50.789062 44.847656 50.808594 44.769531 50.824219 C 44.691406 50.839844 44.609375 50.851562 44.53125 50.859375 C 44.449219 50.867188 44.371094 50.871094 44.289062 50.871094 C 44.207031 50.871094 44.128906 50.867188 44.046875 50.859375 C 43.96875 50.851562 43.886719 50.839844 43.808594 50.824219 C 43.730469 50.808594 43.652344 50.789062 43.574219 50.765625 C 43.496094 50.742188 43.421875 50.714844 43.347656 50.683594 C 43.273438 50.652344 43.199219 50.617188 43.128906 50.578125 C 43.058594 50.542969 42.988281 50.5 42.921875 50.457031 C 42.855469 50.410156 42.789062 50.363281 42.726562 50.3125 C 42.664062 50.261719 42.605469 50.207031 42.550781 50.148438 C 42.492188 50.09375 42.4375 50.03125 42.386719 49.972656 C 42.335938 49.910156 42.289062 49.84375 42.242188 49.777344 C 42.199219 49.710938 42.15625 49.640625 42.117188 49.570312 C 42.082031 49.5 42.046875 49.425781 42.015625 49.351562 C 41.984375 49.277344 41.957031 49.203125 41.933594 49.125 C 41.910156 49.046875 41.890625 48.96875 41.875 48.890625 C 41.859375 48.8125 41.847656 48.730469 41.839844 48.652344 C 41.832031 48.570312 41.828125 48.492188 41.828125 48.410156 C 41.828125 48.328125 41.832031 48.25 41.839844 48.167969 C 41.847656 48.089844 41.859375 48.007812 41.875 47.929688 C 41.890625 47.851562 41.910156 47.773438 41.933594 47.695312 C 41.957031 47.617188 41.984375 47.542969 42.015625 47.46875 C 42.046875 47.394531 42.082031 47.320312 42.117188 47.25 C 42.15625 47.179688 42.199219 47.109375 42.242188 47.042969 C 42.289062 46.976562 42.335938 46.910156 42.386719 46.847656 C 42.4375 46.785156 42.492188 46.726562 42.550781 46.671875 C 42.605469 46.613281 42.664062 46.558594 42.726562 46.507812 C 42.789062 46.457031 42.855469 46.410156 42.921875 46.363281 C 42.988281 46.320312 43.058594 46.277344 43.128906 46.238281 C 43.199219 46.203125 43.273438 46.167969 43.347656 46.136719 C 43.421875 46.105469 43.496094 46.078125 43.574219 46.054688 C 43.652344 46.03125 43.730469 46.011719 43.808594 45.996094 C 43.886719 45.980469 43.96875 45.96875 44.046875 45.960938 C 44.128906 45.953125 44.207031 45.949219 44.289062 45.949219 C 44.371094 45.949219 44.449219 45.953125 44.53125 45.960938 C 44.609375 45.96875 44.691406 45.980469 44.769531 45.996094 C 44.847656 46.011719 44.925781 46.03125 45.003906 46.054688 C 45.082031 46.078125 45.15625 46.105469 45.230469 46.136719 C 45.304688 46.167969 45.378906 46.203125 45.449219 46.238281 C 45.519531 46.277344 45.589844 46.320312 45.65625 46.363281 C 45.722656 46.410156 45.789062 46.457031 45.851562 46.507812 C 45.910156 46.558594 45.972656 46.613281 46.027344 46.671875 C 46.085938 46.726562 46.140625 46.785156 46.191406 46.847656 C 46.242188 46.910156 46.289062 46.976562 46.335938 47.042969 C 46.378906 47.109375 46.421875 47.179688 46.457031 47.25 C 46.496094 47.320312 46.53125 47.394531 46.5625 47.46875 C 46.59375 47.542969 46.621094 47.617188 46.644531 47.695312 C 46.667969 47.773438 46.6875 47.851562 46.703125 47.929688 C 46.71875 48.007812 46.730469 48.089844 46.738281 48.167969 C 46.746094 48.25 46.75 48.328125 46.75 48.410156 Z M 46.75 48.410156 " fill-opacity="1" fill-rule="nonzero"/><path fill="#3e3d40" d="M 46.75 39.796875 C 46.75 39.878906 46.746094 39.960938 46.738281 40.039062 C 46.730469 40.121094 46.71875 40.199219 46.703125 40.277344 C 46.6875 40.355469 46.667969 40.433594 46.644531 40.511719 C 46.621094 40.589844 46.59375 40.664062 46.5625 40.738281 C 46.53125 40.8125 46.496094 40.886719 46.457031 40.957031 C 46.421875 41.027344 46.378906 41.097656 46.335938 41.164062 C 46.289062 41.230469 46.242188 41.296875 46.191406 41.359375 C 46.140625 41.421875 46.085938 41.480469 46.027344 41.539062 C 45.972656 41.59375 45.910156 41.648438 45.851562 41.699219 C 45.789062 41.75 45.722656 41.800781 45.65625 41.84375 C 45.589844 41.890625 45.519531 41.929688 45.449219 41.96875 C 45.378906 42.007812 45.304688 42.039062 45.230469 42.070312 C 45.15625 42.101562 45.082031 42.128906 45.003906 42.152344 C 44.925781 42.175781 44.847656 42.195312 44.769531 42.210938 C 44.691406 42.226562 44.609375 42.238281 44.53125 42.246094 C 44.449219 42.253906 44.371094 42.257812 44.289062 42.257812 C 44.207031 42.257812 44.128906 42.253906 44.046875 42.246094 C 43.96875 42.238281 43.886719 42.226562 43.808594 42.210938 C 43.730469 42.195312 43.652344 42.175781 43.574219 42.152344 C 43.496094 42.128906 43.421875 42.101562 43.347656 42.070312 C 43.273438 42.039062 43.199219 42.007812 43.128906 41.96875 C 43.058594 41.929688 42.988281 41.890625 42.921875 41.84375 C 42.855469 41.800781 42.789062 41.75 42.726562 41.699219 C 42.664062 41.648438 42.605469 41.59375 42.550781 41.539062 C 42.492188 41.480469 42.4375 41.421875 42.386719 41.359375 C 42.335938 41.296875 42.289062 41.230469 42.242188 41.164062 C 42.199219 41.097656 42.15625 41.027344 42.117188 40.957031 C 42.082031 40.886719 42.046875 40.8125 42.015625 40.738281 C 41.984375 40.664062 41.957031 40.589844 41.933594 40.511719 C 41.910156 40.433594 41.890625 40.355469 41.875 40.277344 C 41.859375 40.199219 41.847656 40.121094 41.839844 40.039062 C 41.832031 39.960938 41.828125 39.878906 41.828125 39.796875 C 41.828125 39.71875 41.832031 39.636719 41.839844 39.558594 C 41.847656 39.476562 41.859375 39.398438 41.875 39.316406 C 41.890625 39.238281 41.910156 39.160156 41.933594 39.082031 C 41.957031 39.007812 41.984375 38.929688 42.015625 38.855469 C 42.046875 38.78125 42.082031 38.710938 42.117188 38.636719 C 42.15625 38.566406 42.199219 38.5 42.242188 38.429688 C 42.289062 38.363281 42.335938 38.300781 42.386719 38.238281 C 42.4375 38.175781 42.492188 38.113281 42.550781 38.058594 C 42.605469 38 42.664062 37.945312 42.726562 37.894531 C 42.789062 37.84375 42.855469 37.796875 42.921875 37.753906 C 42.988281 37.707031 43.058594 37.667969 43.128906 37.628906 C 43.199219 37.589844 43.273438 37.554688 43.347656 37.523438 C 43.421875 37.492188 43.496094 37.46875 43.574219 37.445312 C 43.652344 37.421875 43.730469 37.402344 43.808594 37.386719 C 43.886719 37.371094 43.96875 37.355469 44.046875 37.347656 C 44.128906 37.339844 44.207031 37.335938 44.289062 37.335938 C 44.371094 37.335938 44.449219 37.339844 44.53125 37.347656 C 44.609375 37.355469 44.691406 37.371094 44.769531 37.386719 C 44.847656 37.402344 44.925781 37.421875 45.003906 37.445312 C 45.082031 37.46875 45.15625 37.492188 45.230469 37.523438 C 45.304688 37.554688 45.378906 37.589844 45.449219 37.628906 C 45.519531 37.667969 45.589844 37.707031 45.65625 37.753906 C 45.722656 37.796875 45.789062 37.84375 45.851562 37.894531 C 45.910156 37.945312 45.972656 38 46.027344 38.058594 C 46.085938 38.113281 46.140625 38.175781 46.191406 38.238281 C 46.242188 38.300781 46.289062 38.363281 46.335938 38.429688 C 46.378906 38.5 46.421875 38.566406 46.457031 38.636719 C 46.496094 38.710938 46.53125 38.78125 46.5625 38.855469 C 46.59375 38.929688 46.621094 39.007812 46.644531 39.082031 C 46.667969 39.160156 46.6875 39.238281 46.703125 39.316406 C 46.71875 39.398438 46.730469 39.476562 46.738281 39.558594 C 46.746094 39.636719 46.75 39.71875 46.75 39.796875 Z M 46.75 39.796875 " fill-opacity="1" fill-rule="nonzero"/><path fill="#3e3d40" d="M 31.988281 39.796875 C 31.988281 39.878906 31.984375 39.960938 31.972656 40.039062 C 31.96875 40.121094 31.953125 40.199219 31.9375 40.277344 C 31.921875 40.355469 31.902344 40.433594 31.878906 40.511719 C 31.855469 40.589844 31.832031 40.664062 31.800781 40.738281 C 31.769531 40.8125 31.734375 40.886719 31.695312 40.957031 C 31.65625 41.027344 31.617188 41.097656 31.570312 41.164062 C 31.527344 41.230469 31.480469 41.296875 31.429688 41.359375 C 31.375 41.421875 31.324219 41.480469 31.265625 41.539062 C 31.207031 41.59375 31.148438 41.648438 31.085938 41.699219 C 31.023438 41.75 30.960938 41.800781 30.894531 41.84375 C 30.824219 41.890625 30.757812 41.929688 30.6875 41.96875 C 30.613281 42.007812 30.542969 42.039062 30.46875 42.070312 C 30.394531 42.101562 30.316406 42.128906 30.238281 42.152344 C 30.164062 42.175781 30.085938 42.195312 30.007812 42.210938 C 29.925781 42.226562 29.847656 42.238281 29.765625 42.246094 C 29.6875 42.253906 29.605469 42.257812 29.527344 42.257812 C 29.445312 42.257812 29.363281 42.253906 29.285156 42.246094 C 29.203125 42.238281 29.125 42.226562 29.046875 42.210938 C 28.96875 42.195312 28.890625 42.175781 28.8125 42.152344 C 28.734375 42.128906 28.660156 42.101562 28.585938 42.070312 C 28.511719 42.039062 28.4375 42.007812 28.367188 41.96875 C 28.296875 41.929688 28.226562 41.890625 28.160156 41.84375 C 28.09375 41.800781 28.027344 41.75 27.964844 41.699219 C 27.902344 41.648438 27.84375 41.59375 27.785156 41.539062 C 27.730469 41.480469 27.675781 41.421875 27.625 41.359375 C 27.574219 41.296875 27.523438 41.230469 27.480469 41.164062 C 27.433594 41.097656 27.394531 41.027344 27.355469 40.957031 C 27.316406 40.886719 27.285156 40.8125 27.253906 40.738281 C 27.222656 40.664062 27.195312 40.589844 27.171875 40.511719 C 27.148438 40.433594 27.128906 40.355469 27.113281 40.277344 C 27.097656 40.199219 27.085938 40.121094 27.078125 40.039062 C 27.070312 39.960938 27.066406 39.878906 27.066406 39.796875 C 27.066406 39.71875 27.070312 39.636719 27.078125 39.558594 C 27.085938 39.476562 27.097656 39.398438 27.113281 39.316406 C 27.128906 39.238281 27.148438 39.160156 27.171875 39.082031 C 27.195312 39.007812 27.222656 38.929688 27.253906 38.855469 C 27.285156 38.78125 27.316406 38.710938 27.355469 38.636719 C 27.394531 38.566406 27.433594 38.5 27.480469 38.429688 C 27.523438 38.363281 27.574219 38.300781 27.625 38.238281 C 27.675781 38.175781 27.730469 38.113281 27.785156 38.058594 C 27.84375 38 27.902344 37.945312 27.964844 37.894531 C 28.027344 37.84375 28.09375 37.796875 28.160156 37.753906 C 28.226562 37.707031 28.296875 37.667969 28.367188 37.628906 C 28.4375 37.589844 28.511719 37.554688 28.585938 37.523438 C 28.660156 37.492188 28.734375 37.46875 28.8125 37.445312 C 28.890625 37.421875 28.96875 37.402344 29.046875 37.386719 C 29.125 37.371094 29.203125 37.355469 29.285156 37.347656 C 29.363281 37.339844 29.445312 37.335938 29.527344 37.335938 C 29.605469 37.335938 29.6875 37.339844 29.765625 37.347656 C 29.847656 37.355469 29.925781 37.371094 30.007812 37.386719 C 30.085938 37.402344 30.164062 37.421875 30.238281 37.445312 C 30.316406 37.46875 30.394531 37.492188 30.46875 37.523438 C 30.542969 37.554688 30.613281 37.589844 30.6875 37.628906 C 30.757812 37.667969 30.824219 37.707031 30.894531 37.753906 C 30.960938 37.796875 31.023438 37.84375 31.085938 37.894531 C 31.148438 37.945312 31.207031 38 31.265625 38.058594 C 31.324219 38.113281 31.375 38.175781 31.429688 38.238281 C 31.480469 38.300781 31.527344 38.363281 31.570312 38.429688 C 31.617188 38.5 31.65625 38.566406 31.695312 38.636719 C 31.734375 38.710938 31.769531 38.78125 31.800781 38.855469 C 31.832031 38.929688 31.855469 39.007812 31.878906 39.082031 C 31.902344 39.160156 31.921875 39.238281 31.9375 39.316406 C 31.953125 39.398438 31.96875 39.476562 31.972656 39.558594 C 31.984375 39.636719 31.988281 39.71875 31.988281 39.796875 Z M 31.988281 39.796875 " fill-opacity="1" fill-rule="nonzero"/><g mask="url(#c662287e38)"><g transform="matrix(1, 0, 0, 1, 87, 0)"><g clip-path="url(#3cadc752c1)"><g fill="#0c021b" fill-opacity="1"><g transform="translate(0.728165, 58.978831)"><g><path d="M 43.1875 0 L 31.25 0 L 15.359375 -24 L 15.359375 0 L 3.40625 0 L 3.40625 -42.953125 L 15.359375 -42.953125 L 31.25 -18.640625 L 31.25 -42.953125 L 43.1875 -42.953125 Z M 43.1875 0 "/></g></g></g><g fill="#0c021b" fill-opacity="1"><g transform="translate(47.334914, 58.978831)"><g><path d="M 15.109375 -42.953125 L 15.109375 -18.03125 C 15.109375 -15.71875 15.644531 -13.929688 16.71875 -12.671875 C 17.800781 -11.410156 19.4375 -10.78125 21.625 -10.78125 C 23.820312 -10.78125 25.476562 -11.421875 26.59375 -12.703125 C 27.707031 -13.984375 28.265625 -15.757812 28.265625 -18.03125 L 28.265625 -42.953125 L 40.203125 -42.953125 L 40.203125 -18.03125 C 40.203125 -14.09375 39.367188 -10.734375 37.703125 -7.953125 C 36.046875 -5.171875 33.785156 -3.078125 30.921875 -1.671875 C 28.054688 -0.273438 24.878906 0.421875 21.390625 0.421875 C 17.890625 0.421875 14.769531 -0.273438 12.03125 -1.671875 C 9.289062 -3.078125 7.140625 -5.160156 5.578125 -7.921875 C 4.015625 -10.679688 3.234375 -14.050781 3.234375 -18.03125 L 3.234375 -42.953125 Z M 15.109375 -42.953125 "/></g></g></g><g fill="#0c021b" fill-opacity="1"><g transform="translate(90.712694, 58.978831)"><g><path d="M 28.8125 0 L 15.359375 -18.828125 L 15.359375 0 L 3.40625 0 L 3.40625 -42.953125 L 15.359375 -42.953125 L 15.359375 -24.421875 L 28.6875 -42.953125 L 42.46875 -42.953125 L 26.6875 -22.109375 L 43.25 0 Z M 28.8125 0 "/></g></g></g><g fill="#0c021b" fill-opacity="1"><g transform="translate(134.943424, 58.978831)"><g><path d="M 15.359375 -33.390625 L 15.359375 -26.375 L 29.0625 -26.375 L 29.0625 -17.296875 L 15.359375 -17.296875 L 15.359375 -9.5625 L 30.890625 -9.5625 L 30.890625 0 L 3.40625 0 L 3.40625 -42.953125 L 30.890625 -42.953125 L 30.890625 -33.390625 Z M 15.359375 -33.390625 "/></g></g></g></g></g></g><g mask="url(#dc2a4fdaf8)"><g transform="matrix(1, 0, 0, 1, 257, 0)"><g clip-path="url(#e8d85beb15)"><g fill="#0c021b" fill-opacity="1"><g transform="translate(0.343561, 58.978831)"><g><path d="M 33.078125 -30.03125 C 33.078125 -26.5 31.867188 -23.566406 29.453125 -21.234375 C 27.035156 -18.898438 23.347656 -17.734375 18.390625 -17.734375 L 10.234375 -17.734375 L 10.234375 0 L 4.6875 0 L 4.6875 -42.46875 L 18.390625 -42.46875 C 23.191406 -42.46875 26.835938 -41.304688 29.328125 -38.984375 C 31.828125 -36.671875 33.078125 -33.6875 33.078125 -30.03125 Z M 18.390625 -22.296875 C 21.484375 -22.296875 23.757812 -22.960938 25.21875 -24.296875 C 26.6875 -25.640625 27.421875 -27.550781 27.421875 -30.03125 C 27.421875 -35.269531 24.410156 -37.890625 18.390625 -37.890625 L 10.234375 -37.890625 L 10.234375 -22.296875 Z M 18.390625 -22.296875 "/></g></g></g><g fill="#0c021b" fill-opacity="1"><g transform="translate(35.618477, 58.978831)"><g><path d="M 2.625 -16.8125 C 2.625 -20.226562 3.3125 -23.222656 4.6875 -25.796875 C 6.070312 -28.378906 7.972656 -30.378906 10.390625 -31.796875 C 12.804688 -33.222656 15.492188 -33.9375 18.453125 -33.9375 C 21.378906 -33.9375 23.914062 -33.304688 26.0625 -32.046875 C 28.21875 -30.785156 29.828125 -29.203125 30.890625 -27.296875 L 30.890625 -33.390625 L 36.5 -33.390625 L 36.5 0 L 30.890625 0 L 30.890625 -6.21875 C 29.796875 -4.269531 28.160156 -2.65625 25.984375 -1.375 C 23.804688 -0.09375 21.273438 0.546875 18.390625 0.546875 C 15.429688 0.546875 12.753906 -0.179688 10.359375 -1.640625 C 7.960938 -3.109375 6.070312 -5.160156 4.6875 -7.796875 C 3.3125 -10.441406 2.625 -13.445312 2.625 -16.8125 Z M 30.890625 -16.75 C 30.890625 -19.269531 30.378906 -21.460938 29.359375 -23.328125 C 28.347656 -25.203125 26.976562 -26.632812 25.25 -27.625 C 23.519531 -28.625 21.625 -29.125 19.5625 -29.125 C 17.488281 -29.125 15.597656 -28.632812 13.890625 -27.65625 C 12.179688 -26.6875 10.816406 -25.265625 9.796875 -23.390625 C 8.785156 -21.523438 8.28125 -19.332031 8.28125 -16.8125 C 8.28125 -14.25 8.785156 -12.023438 9.796875 -10.140625 C 10.816406 -8.253906 12.179688 -6.8125 13.890625 -5.8125 C 15.597656 -4.820312 17.488281 -4.328125 19.5625 -4.328125 C 21.625 -4.328125 23.519531 -4.820312 25.25 -5.8125 C 26.976562 -6.8125 28.347656 -8.253906 29.359375 -10.140625 C 30.378906 -12.023438 30.890625 -14.226562 30.890625 -16.75 Z M 30.890625 -16.75 "/></g></g></g><g fill="#0c021b" fill-opacity="1"><g transform="translate(76.803011, 58.978831)"><g><path d="M 2.625 -16.8125 C 2.625 -20.226562 3.3125 -23.222656 4.6875 -25.796875 C 6.070312 -28.378906 7.972656 -30.378906 10.390625 -31.796875 C 12.804688 -33.222656 15.515625 -33.9375 18.515625 -33.9375 C 21.117188 -33.9375 23.535156 -33.335938 25.765625 -32.140625 C 28.003906 -30.941406 29.710938 -29.367188 30.890625 -27.421875 L 30.890625 -45.078125 L 36.5 -45.078125 L 36.5 0 L 30.890625 0 L 30.890625 -6.28125 C 29.796875 -4.289062 28.171875 -2.65625 26.015625 -1.375 C 23.859375 -0.09375 21.335938 0.546875 18.453125 0.546875 C 15.492188 0.546875 12.804688 -0.179688 10.390625 -1.640625 C 7.972656 -3.109375 6.070312 -5.160156 4.6875 -7.796875 C 3.3125 -10.441406 2.625 -13.445312 2.625 -16.8125 Z M 30.890625 -16.75 C 30.890625 -19.269531 30.378906 -21.460938 29.359375 -23.328125 C 28.347656 -25.203125 26.976562 -26.632812 25.25 -27.625 C 23.519531 -28.625 21.625 -29.125 19.5625 -29.125 C 17.488281 -29.125 15.597656 -28.632812 13.890625 -27.65625 C 12.179688 -26.6875 10.816406 -25.265625 9.796875 -23.390625 C 8.785156 -21.523438 8.28125 -19.332031 8.28125 -16.8125 C 8.28125 -14.25 8.785156 -12.023438 9.796875 -10.140625 C 10.816406 -8.253906 12.179688 -6.8125 13.890625 -5.8125 C 15.597656 -4.820312 17.488281 -4.328125 19.5625 -4.328125 C 21.625 -4.328125 23.519531 -4.820312 25.25 -5.8125 C 26.976562 -6.8125 28.347656 -8.253906 29.359375 -10.140625 C 30.378906 -12.023438 30.890625 -14.226562 30.890625 -16.75 Z M 30.890625 -16.75 "/></g></g></g></g></g></g></svg>